<svg preserveAspectRatio="none" width="100%" height="100%" overflow="visible" style="display: block;" viewBox="0 0 22.45 14.16" fill="none" xmlns="http://www.w3.org/2000/svg">
<g id="Layer_1" clip-path="url(#clip0_0_7)">
<path id="Vector" d="M16.83 0.03C20.93 -0.33 23.14 3.66 22.25 7.32C21.36 10.98 18.04 13.65 14.37 14.09C13.73 14.17 12.55 14.38 12.48 13.46C12.42 12.69 13.27 12.7 13.74 12.33C14.38 11.83 14.76 10.91 14.9 10.12C14.93 9.94 15.03 9.59 14.9 9.45C14.77 9.33 14.38 9.13 14.2 8.98C10.75 6.24 12.43 0.42 16.83 0.03Z" fill="var(--fill-0, #5864FF)"/>
<path id="Vector_2" d="M4.44 0.03C8.66 -0.36 10.89 3.77 9.86 7.51C8.83 11.25 5.64 13.67 1.98 14.09C1.37 14.16 0.13 14.35 0.13 13.42C0.13 12.67 0.92 12.7 1.39 12.34C2.22 11.71 2.52 10.52 2.64 9.53C-0.0899999 8 -0.86 4.42 1.08 1.91C1.85 0.91 3.17 0.14 4.44 0.03Z" fill="var(--fill-0, #5864FF)"/>
</g>
<defs>
<clipPath id="clip0_0_7">
<rect width="22.45" height="14.16" fill="white"/>
</clipPath>
</defs>
</svg>
