<svg preserveAspectRatio="none" width="100%" height="100%" overflow="visible" style="display: block;" viewBox="0 0 1418.63 760" fill="none" xmlns="http://www.w3.org/2000/svg">
<path id="Vector 119" d="M1398.63 0H20C8.95431 0 0 8.95432 0 20V740C0 751.046 8.9543 760 20 760H159.788C170.834 760 179.788 751.046 179.788 740V700.427C179.788 689.382 188.742 680.427 199.788 680.427H1235.58C1246.63 680.427 1255.58 689.382 1255.58 700.427V740C1255.58 751.046 1264.54 760 1275.58 760H1398.63C1409.67 760 1418.63 751.046 1418.63 740V20C1418.63 8.95431 1409.67 0 1398.63 0Z" fill="var(--fill-0, #110B36)"/>
</svg>
