<svg preserveAspectRatio="none" width="100%" height="100%" overflow="visible" style="display: block;" viewBox="0 0 48 48" fill="none" xmlns="http://www.w3.org/2000/svg">
<g id="moving">
<mask id="mask0_0_4" style="mask-type:alpha" maskUnits="userSpaceOnUse" x="0" y="0" width="48" height="48">
<rect id="Bounding box" width="48" height="48" fill="var(--fill-0, #D9D9D9)"/>
</mask>
<g mask="url(#mask0_0_4)">
<path id="moving_2" d="M40.55 18.55L31.25 27.8C30.0513 29 28.61 29.6 26.926 29.6C25.242 29.6 23.8 29 22.6 27.8L20.25 25.45C19.876 25.0833 19.4325 24.9 18.9195 24.9C18.4065 24.9 17.9667 25.0833 17.6 25.45L7.7 35.35C7.25767 35.7833 6.77217 36 6.2435 36C5.7145 36 5.23333 35.7917 4.8 35.375C4.36667 34.9583 4.15 34.475 4.15 33.925C4.15 33.375 4.36667 32.8833 4.8 32.45L14.65 22.55C15.8487 21.35 17.29 20.75 18.974 20.75C20.658 20.75 22.1 21.35 23.3 22.55L25.6 24.85C25.9667 25.2167 26.4055 25.4 26.9165 25.4C27.4278 25.4 27.889 25.2167 28.3 24.85L37.6 15.55H34.6C34.0233 15.55 33.5375 15.3535 33.1425 14.9605C32.7475 14.5675 32.55 14.0842 32.55 13.5105C32.55 12.9368 32.7475 12.45 33.1425 12.05C33.5375 11.65 34.0233 11.45 34.6 11.45H42.3C42.9627 11.45 43.5283 11.675 43.997 12.125C44.4657 12.575 44.7 13.1333 44.7 13.8V21.5C44.7 22.0767 44.4977 22.5625 44.093 22.9575C43.6883 23.3525 43.1907 23.55 42.6 23.55C42.0233 23.55 41.5375 23.3525 41.1425 22.9575C40.7475 22.5625 40.55 22.0767 40.55 21.5V18.55Z" fill="var(--fill-0, #2CAF2C)"/>
</g>
</g>
</svg>
