<svg preserveAspectRatio="none" width="100%" height="100%" overflow="visible" style="display: block;" viewBox="0 0 24 24" fill="none" xmlns="http://www.w3.org/2000/svg">
<g id="check">
<mask id="mask0_0_4" style="mask-type:alpha" maskUnits="userSpaceOnUse" x="0" y="0" width="24" height="24">
<rect id="Bounding box" width="24" height="24" fill="var(--fill-0, #D9D9D9)"/>
</mask>
<g mask="url(#mask0_0_4)">
<path id="check_2" d="M9.55 14.9468L17.9175 6.57925C18.1453 6.35142 18.4125 6.2375 18.719 6.2375C19.0255 6.2375 19.2928 6.35142 19.5208 6.57925C19.7486 6.80725 19.8625 7.07767 19.8625 7.3905C19.8625 7.70333 19.7486 7.97375 19.5208 8.20175L10.3518 17.3898C10.1238 17.6176 9.8565 17.7315 9.55 17.7315C9.2435 17.7315 8.97625 17.6176 8.74825 17.3898L4.46025 13.1017C4.23242 12.8737 4.12167 12.6033 4.128 12.2905C4.13433 11.9777 4.25142 11.7072 4.47925 11.4792C4.70725 11.2514 4.97767 11.1375 5.2905 11.1375C5.60333 11.1375 5.87375 11.2514 6.10175 11.4792L9.55 14.9468Z" fill="var(--fill-0, #2AA900)"/>
</g>
</g>
</svg>
