<svg preserveAspectRatio="none" width="100%" height="100%" overflow="visible" style="display: block;" viewBox="0 0 60 23.5343" fill="none" xmlns="http://www.w3.org/2000/svg">
<g id="dehaze">
<path id="dehaze_2" d="M16.5492 3.09791C16.1129 3.09791 15.7457 2.94836 15.4474 2.64927C15.1491 2.35018 15 1.98184 15 1.54425C15 1.10666 15.1491 0.739816 15.4474 0.443725C15.7457 0.147908 16.1129 0 16.5492 0H43.4443C43.8805 0 44.2489 0.149543 44.5493 0.448633C44.8498 0.747722 45 1.11606 45 1.55366C45 1.99125 44.8498 2.35809 44.5493 2.65418C44.2489 2.95 43.8805 3.09791 43.4443 3.09791H16.5492ZM16.5492 23.5343C16.1129 23.5343 15.7457 23.3847 15.4474 23.0856C15.1491 22.7865 15 22.4182 15 21.9806C15 21.543 15.1491 21.1762 15.4474 20.8801C15.7457 20.5843 16.1129 20.4364 16.5492 20.4364H43.4443C43.8805 20.4364 44.2489 20.5859 44.5493 20.885C44.8498 21.1841 45 21.5524 45 21.99C45 22.4276 44.8498 22.7945 44.5493 23.0905C44.2489 23.3864 43.8805 23.5343 43.4443 23.5343H16.5492ZM16.5492 13.3163C16.1129 13.3163 15.7457 13.1666 15.4474 12.8672C15.1491 12.5682 15 12.1998 15 11.7622C15 11.3246 15.1491 10.9579 15.4474 10.6621C15.7457 10.366 16.1129 10.218 16.5492 10.218H43.4443C43.8805 10.218 44.2489 10.3677 44.5493 10.667C44.8498 10.9661 45 11.3345 45 11.772C45 12.2096 44.8498 12.5763 44.5493 12.8722C44.2489 13.1682 43.8805 13.3163 43.4443 13.3163H16.5492Z" fill="var(--fill-0, #1A1250)"/>
</g>
</svg>
